<svg width="275" height="275" viewBox="0 0 275 275" fill="none" xmlns="http://www.w3.org/2000/svg">
<g clip-path="url(#clip0)">
<path d="M266.956 237.395L251.006 237.37C260.881 227.457 266.994 213.794 266.994 198.728C266.994 194.279 263.387 190.672 258.937 190.672C254.488 190.672 250.881 194.279 250.881 198.728C250.881 219.229 234.845 236.045 214.659 237.314L171.535 237.247C132.502 237.187 100.746 205.383 100.746 166.35V166.234C100.746 161.785 97.1387 158.177 92.6893 158.177C88.24 158.177 84.6328 161.785 84.6328 166.234V166.351C84.6328 214.255 123.606 253.288 171.51 253.362L217.001 253.631C220.554 253.631 223.365 254.816 225.846 257.36C228.429 260.008 229.441 262.726 229.34 266.74C229.227 271.188 232.742 274.885 237.191 274.997C237.26 274.999 237.329 275 237.397 275C241.752 275 245.337 271.525 245.447 267.146C245.576 262.067 244.648 257.54 242.645 253.471L266.931 253.508H266.944C271.387 253.508 274.993 249.909 275 245.464C275.007 241.015 271.405 237.402 266.956 237.395Z" fill="#FDBF00"/>
<path d="M266.956 237.395L251.006 237.37C260.881 227.457 266.994 213.794 266.994 198.728C266.994 194.279 263.387 190.672 258.937 190.672C254.488 190.672 250.881 194.279 250.881 198.728C250.881 219.229 234.845 236.045 214.659 237.314L171.535 237.247C132.502 237.187 100.746 205.383 100.746 166.35V166.234C100.746 161.785 97.1387 158.177 92.6893 158.177V202.875C106.509 232.609 136.64 253.308 171.51 253.361L217.001 253.63C220.554 253.63 223.365 254.815 225.846 257.359C228.429 260.008 229.441 262.725 229.34 266.739C229.227 271.188 232.742 274.885 237.19 274.997C237.26 274.998 237.329 274.999 237.397 274.999C241.752 274.999 245.337 271.525 245.447 267.146C245.576 262.067 244.648 257.539 242.645 253.47L266.931 253.508H266.944C271.387 253.508 274.993 249.909 275 245.464C275.006 241.015 271.405 237.402 266.956 237.395Z" fill="#FF8856"/>
<path d="M179.452 117.353C175.598 115.129 170.671 116.448 168.447 120.302C166.359 123.919 162.154 125.559 158.291 124.578L151.459 113.547C144.83 102.844 144.873 90.0908 151.572 79.4314L157.805 69.5132C158.789 69.4515 159.787 69.5406 160.769 69.8038C163.134 70.4376 165.104 71.9436 166.317 74.0448C167.809 76.6299 170.517 78.0741 173.301 78.0741C174.668 78.0741 176.054 77.7261 177.322 76.9935C181.176 74.7688 182.496 69.8414 180.271 65.9882C177.056 60.42 171.941 56.3692 165.805 54.4942C167.249 48.2423 166.299 41.7868 163.084 36.2186C160.858 32.3649 155.93 31.0452 152.078 33.2699C148.225 35.4946 146.904 40.422 149.13 44.2752C150.343 46.3763 150.662 48.8358 150.029 51.2001C149.773 52.1535 149.37 53.0381 148.849 53.8394L136.682 54.2159C124.126 54.5989 113.075 48.1918 107.193 37.0603L100.763 24.8927C100.95 20.0211 104.96 16.1132 109.876 16.1132C114.325 16.1132 117.932 12.506 117.932 8.05658C117.932 3.6072 114.325 0 109.876 0C103.24 0 97.1991 2.57757 92.6884 6.77827C88.1784 2.57757 82.1365 0 75.5016 0C71.0522 0 67.445 3.6072 67.445 8.05658C67.445 12.506 71.0522 16.1132 75.5016 16.1132C80.4081 16.1132 84.4122 20.0066 84.6125 24.8653L77.9116 37.3476C71.9562 48.4399 60.8671 54.7767 48.3101 54.3083L34.6005 53.7938C32.805 51.0067 32.5842 47.3383 34.3524 44.2752C36.5776 40.422 35.2569 35.4946 31.4037 33.2699C27.5483 31.0452 22.622 32.366 20.3984 36.2192C17.0807 41.9662 16.2917 48.4877 17.6753 54.4947C11.5399 56.3697 6.42505 60.4206 3.21102 65.9877C0.985789 69.8409 2.30599 74.7683 6.15972 76.993C7.42837 77.7256 8.81356 78.0736 10.1805 78.0736C12.9648 78.0736 15.6729 76.6288 17.165 74.0443C18.3783 71.9431 20.3484 70.437 22.7128 69.8033C24.4084 69.3483 26.1519 69.3924 27.7782 69.8967L33.9173 79.8095C40.5457 90.5124 40.5038 103.267 33.8051 113.926L27.5075 123.643C23.15 126.161 17.5528 124.662 15.0343 120.301C12.8096 116.448 7.88061 115.128 4.02903 117.353C0.175297 119.577 -1.14491 124.505 1.08032 128.358C4.39802 134.104 9.65252 138.041 15.5456 139.847C14.1604 145.855 14.9484 152.379 18.2671 158.127C19.7592 160.712 22.4673 162.157 25.2517 162.157C26.6186 162.157 28.0038 161.809 29.2724 161.076C33.1256 158.852 34.4464 153.924 32.2211 150.071C30.2473 146.652 30.7522 142.48 33.1611 139.622L48.6942 139.141C61.2544 138.764 72.3015 145.166 78.1828 156.297L85.5637 170.266C86.9548 172.898 89.6839 174.549 92.6605 174.559H92.6874C95.6538 174.559 98.3823 172.928 99.7858 170.313L107.465 156.01C113.212 145.303 123.72 139.024 135.757 139.024C136.192 139.024 150.252 139.544 150.252 139.544C151.137 140.572 151.795 141.791 152.158 143.146C152.792 145.51 152.473 147.969 151.259 150.071C149.034 153.924 150.354 158.852 154.208 161.076C155.477 161.809 156.862 162.157 158.229 162.157C161.013 162.157 163.721 160.712 165.213 158.128C168.429 152.558 169.378 146.101 167.933 139.848C173.826 138.042 179.082 134.104 182.4 128.358C184.626 124.505 183.306 119.578 179.452 117.353Z" fill="#FFDE46"/>
<path d="M179.453 117.353C175.598 115.129 170.672 116.448 168.447 120.302C166.359 123.919 162.154 125.559 158.291 124.578L151.459 113.547C144.83 102.844 144.873 90.0908 151.572 79.4314L157.806 69.5132C158.789 69.4515 159.787 69.5406 160.77 69.8038C163.134 70.4376 165.104 71.9436 166.317 74.0448C167.809 76.6299 170.517 78.0741 173.302 78.0741C174.669 78.0741 176.054 77.7261 177.323 76.9935C181.176 74.7688 182.497 69.8414 180.271 65.9882C177.056 60.42 171.941 56.3692 165.805 54.4942C167.249 48.2423 166.299 41.7868 163.084 36.2186C160.859 32.3649 155.93 31.0452 152.079 33.2699C148.225 35.4946 146.905 40.422 149.13 44.2752C150.343 46.3763 150.662 48.8358 150.029 51.2001C149.773 52.1535 149.37 53.0381 148.849 53.8394L136.683 54.2159C124.126 54.5989 113.076 48.1918 107.193 37.0603L100.764 24.8927C100.95 20.0211 104.96 16.1132 109.876 16.1132C114.326 16.1132 117.933 12.506 117.933 8.05658C117.933 3.6072 114.326 0 109.876 0C103.241 0 97.1994 2.57703 92.6888 6.77827V174.559C95.6552 174.559 98.3832 172.928 99.7866 170.313L107.466 156.01C113.213 145.303 123.721 139.024 135.758 139.024C136.193 139.024 150.253 139.544 150.253 139.544C151.138 140.572 151.796 141.791 152.159 143.146C152.792 145.51 152.473 147.969 151.26 150.071C149.035 153.924 150.355 158.852 154.209 161.076C155.477 161.809 156.863 162.157 158.23 162.157C161.014 162.157 163.722 160.712 165.214 158.128C168.43 152.558 169.379 146.101 167.933 139.848C173.827 138.042 179.083 134.104 182.401 128.358C184.627 124.505 183.306 119.578 179.453 117.353Z" fill="#FFCD00"/>
<path d="M92.689 120.849C79.3617 120.849 68.519 110.006 68.519 96.6791C68.519 83.3518 79.3617 72.5092 92.689 72.5092C106.016 72.5092 116.859 83.3518 116.859 96.6791C116.859 110.006 106.016 120.849 92.689 120.849Z" fill="#FDBF00"/>
<path d="M92.6888 72.5092V120.849C106.016 120.849 116.859 110.006 116.859 96.6791C116.859 83.3518 106.016 72.5092 92.6888 72.5092Z" fill="#FF8856"/>
</g>
<defs>
<clipPath id="clip0">
<rect width="275" height="275" fill="white"/>
</clipPath>
</defs>
</svg>
