<svg width="1251" height="822" viewBox="0 0 1251 822" fill="none" xmlns="http://www.w3.org/2000/svg">
<path d="M268.549 586.223C203.498 586.223 150.784 638.922 150.784 703.976C150.784 769.031 203.501 821.723 268.549 821.723C333.618 821.723 386.32 769.031 386.32 703.976C386.32 638.922 333.618 586.223 268.549 586.223ZM268.549 755.169C240.272 755.169 217.359 732.257 217.359 703.976C217.359 675.682 240.268 652.78 268.549 652.78C296.829 652.78 319.756 675.682 319.756 703.976C319.756 732.257 296.825 755.169 268.549 755.169Z" fill="black"/>
<path d="M1120.28 400.046C1077.11 388.818 1052.4 381.762 1035.45 349.017L978.746 234.226C961.779 201.481 917.739 174.685 880.857 174.685H792.89V68.1309C792.89 30.8105 762.351 0.274658 725.03 0.274658H67.8563C30.5323 0.274658 0 30.8105 0 68.1309V643.234C0 680.554 30.5359 711.093 67.8563 711.093H115.273C115.166 708.731 115.091 706.361 115.091 703.977C115.091 619.368 183.932 550.541 268.545 550.541C353.164 550.541 422.006 619.375 422.006 703.977C422.006 706.361 421.934 708.731 421.827 711.093H725.034C728.853 711.093 732.582 710.737 736.237 710.126C736.162 708.085 736.08 706.04 736.08 703.977C736.08 619.368 804.917 550.541 889.533 550.541C974.149 550.541 1042.99 619.375 1042.99 703.977C1042.99 706.361 1042.92 708.731 1042.81 711.093H1182.95C1219.84 711.093 1250 680.918 1250 644.044V516.647C1250 409.361 1156.13 409.361 1120.28 400.046ZM570.32 344.074C570.32 363.396 554.51 379.203 535.191 379.203H462.306V452.085C462.306 471.407 446.499 487.217 427.177 487.217H365.709C346.387 487.217 330.58 471.407 330.58 452.085V379.203H257.695C238.373 379.203 222.566 363.396 222.566 344.074V282.606C222.566 263.284 238.373 247.477 257.695 247.477H330.58V174.592C330.58 155.27 346.387 139.463 365.709 139.463H427.177C446.499 139.463 462.306 155.27 462.306 174.592V247.477H535.191C554.51 247.477 570.32 263.284 570.32 282.606V344.074ZM792.89 394.079V221.303H857.035C889.837 221.303 929.034 245.143 944.124 274.28L994.571 376.42C998.265 383.55 1002.38 389.296 1007.04 394.079H792.89Z" fill="black"/>
<path d="M889.53 586.223C824.479 586.223 771.766 638.922 771.766 703.976C771.766 769.031 824.482 821.723 889.53 821.723C954.599 821.723 1007.3 769.031 1007.3 703.976C1007.3 638.922 954.602 586.223 889.53 586.223ZM889.53 755.169C861.25 755.169 838.337 732.257 838.337 703.976C838.337 675.682 861.25 652.78 889.53 652.78C917.81 652.78 940.737 675.682 940.737 703.976C940.737 732.257 917.81 755.169 889.53 755.169Z" fill="black"/>
</svg>
