<svg width="250" height="275" viewBox="0 0 250 275" fill="none" xmlns="http://www.w3.org/2000/svg">
<path d="M224.365 128.906H120.85C108.714 128.906 98.877 118.085 98.877 104.736V24.1699C98.877 10.8211 108.714 0 120.85 0H224.365C236.5 0 246.338 10.8211 246.338 24.1699V104.736C246.338 118.085 236.5 128.906 224.365 128.906Z" fill="#0A4EAF"/>
<path d="M120.85 112.793C116.809 112.793 113.525 109.181 113.525 104.736V24.1699C113.525 19.7248 116.809 16.1133 120.85 16.1133H224.365C228.406 16.1133 231.689 19.7248 231.689 24.1699V104.736C231.689 109.181 228.406 112.793 224.365 112.793H120.85Z" fill="#E1E4FB"/>
<path d="M84.2285 24.1699C84.2285 37.5434 74.4146 48.3398 62.2559 48.3398C50.0972 48.3398 40.2832 37.5434 40.2832 24.1699C40.2832 10.7954 50.0972 0 62.2559 0C74.4146 0 84.2285 10.7954 84.2285 24.1699Z" fill="#4DBBEB"/>
<path d="M148.609 100.752C145.92 100.752 143.338 99.1235 142.05 96.2989C140.241 92.3178 141.707 87.479 145.326 85.4885L190.816 60.4688C194.443 58.4939 198.827 60.0912 200.644 64.0723C202.454 68.0534 200.987 72.8922 197.368 74.8827L151.878 99.9023C150.826 100.476 149.71 100.752 148.609 100.752Z" fill="#08469C"/>
<path d="M155.86 89.4287C152.344 81.5332 143.701 78.1494 136.23 82.3389L116.455 93.1342L94.6289 69.1254C91.8457 66.0639 88.1836 64.4531 84.228 64.4531H45.6538H32.9585C16.8457 64.4531 3.66162 78.9545 3.66162 96.6797V145.02C3.66162 155.654 12.1582 164.516 25.6343 159.199V170.264V258.887C25.6343 267.749 32.2261 275 40.2827 275C48.3394 275 54.9311 267.749 54.9311 258.887V201.416C54.9311 196.904 58.1533 193.359 62.2554 193.359C66.3574 193.359 69.5796 196.904 69.5796 201.416V258.887C69.5796 267.749 76.1714 275 84.228 275C92.2847 275 98.8765 267.749 98.8765 258.887V124.072L108.69 127.939C112.792 129.55 116.601 129.067 120.117 127.134L149.414 111.021C156.592 107.153 159.522 97.4854 155.86 89.4287Z" fill="#4DBBEB"/>
<path d="M149.414 111.021L120.117 127.134C116.602 129.067 112.793 129.55 108.691 127.939L98.877 124.072V258.887C98.877 267.749 92.2852 275 84.2285 275C76.1719 275 69.5801 267.749 69.5801 258.887V201.416C69.5801 196.904 66.3579 193.359 62.2559 193.359V64.4531H84.2285C88.1841 64.4531 91.8462 66.0639 94.6294 69.1254L116.456 93.1342L136.23 82.3389C143.701 78.1494 152.344 81.5332 155.86 89.4287C159.522 97.4854 156.592 107.153 149.414 111.021Z" fill="#159CE4"/>
<path d="M84.2285 24.1699C84.2285 37.5434 74.4146 48.3398 62.2559 48.3398V0C74.4146 0 84.2285 10.7954 84.2285 24.1699Z" fill="#4596E6"/>
</svg>
