<svg width="512" height="512" viewBox="0 0 512 512" fill="none" xmlns="http://www.w3.org/2000/svg">
<path d="M272 40H176C87.634 40 16 111.634 16 200C16 235.346 44.654 264 80 264H136.583C131.134 273.416 128 284.339 128 296C128 331.346 156.654 360 192 360H400C453.019 360 496 317.019 496 264C496 140.288 395.712 40 272 40Z" fill="#FAC3C8"/>
<path d="M224 360C224 395.346 252.654 424 288 424C296.837 424 304 431.163 304 440V472H352V360H224Z" fill="#FAA032"/>
<path d="M192 232H48C30.327 232 16 217.673 16 200C16 235.346 44.654 264 80 264H136.583C147.651 244.876 168.315 232 192 232Z" fill="#F58CAA"/>
<path d="M136.59 264C147.672 244.885 168.359 232 192 232H336C340.418 232 344 228.418 344 224C344 219.582 340.418 216 336 216H301.19C307.924 208.087 312 197.847 312 186.667C312 182.249 308.418 178.667 304 178.667C299.582 178.667 296 182.249 296 186.667C296 202.841 282.841 216 266.667 216H200V210.667C200 197.433 210.767 186.667 224 186.667C228.418 186.667 232 183.085 232 178.667C232 174.249 228.418 170.667 224 170.667C215.002 170.667 206.69 173.655 200 178.689V160C200 155.582 196.418 152 192 152C187.582 152 184 155.582 184 160V216.401C154.718 219.322 130.05 238.103 118.7 264H136.584H136.59Z" fill="#F58CAA"/>
<path d="M384 224C379.582 224 376 227.582 376 232V248C376 270.056 358.056 288 336 288H224C210.767 288 200 277.234 200 264C200 259.582 196.418 256 192 256C187.582 256 184 259.582 184 264C184 272.998 186.988 281.31 192.022 288H176C171.582 288 168 291.582 168 296C168 300.418 171.582 304 176 304H288.022C282.988 310.69 280 319.002 280 328C280 332.418 283.582 336 288 336C292.418 336 296 332.418 296 328C296 314.766 306.767 304 320 304H336C366.879 304 392 278.878 392 248V232C392 227.582 388.418 224 384 224Z" fill="#F58CAA"/>
<path d="M424 184C424 179.582 420.418 176 416 176C402.767 176 392 165.234 392 152V74.831C386.809 71.531 381.469 68.446 376 65.573V104C376 117.234 365.233 128 352 128H320C306.767 128 296 117.234 296 104C296 99.582 292.418 96 288 96C283.582 96 280 99.582 280 104C280 112.998 282.988 121.31 288.022 128H258.667C254.249 128 250.667 131.582 250.667 136C250.667 140.418 254.249 144 258.667 144H352C360.998 144 369.31 141.012 376 135.978V152C376 174.056 393.944 192 416 192C420.418 192 424 188.418 424 184Z" fill="#F58CAA"/>
<path d="M200 104C200 108.418 203.582 112 208 112C212.418 112 216 108.418 216 104V82.645C222.69 87.679 231.002 90.667 240 90.667C244.418 90.667 248 87.085 248 82.667C248 78.249 244.418 74.667 240 74.667C226.767 74.667 216 63.901 216 50.667V40H200V104Z" fill="#F58CAA"/>
<path d="M464 258.667C450.767 258.667 440 247.901 440 234.667V224C440 219.582 436.418 216 432 216C427.582 216 424 219.582 424 224V288C424 292.418 427.582 296 432 296C436.418 296 440 292.418 440 288V266.645C446.69 271.679 455.002 274.667 464 274.667C468.418 274.667 472 271.085 472 266.667C472 262.249 468.418 258.667 464 258.667Z" fill="#F58CAA"/>
<path d="M128 77.333C123.582 77.333 120 80.915 120 85.333V149.333C120 153.751 123.582 157.333 128 157.333C132.418 157.333 136 153.751 136 149.333V136C136 122.766 146.767 112 160 112C164.418 112 168 108.418 168 104C168 99.582 164.418 96 160 96C151.002 96 142.69 98.988 136 104.022V85.333C136 80.915 132.418 77.333 128 77.333Z" fill="#F58CAA"/>
<path d="M96 176C100.418 176 104 172.418 104 168C104 163.582 100.418 160 96 160H79.978C85.012 153.31 88 144.998 88 136C88 131.582 84.418 128 80 128C75.582 128 72 131.582 72 136C72 149.234 61.233 160 48 160H21.041C19.694 165.234 18.609 170.573 17.792 176H96Z" fill="#F58CAA"/>
<path d="M384 424H352C316.654 424 288 395.346 288 360H384C401.673 360 416 374.327 416 392C416 409.673 401.673 424 384 424Z" fill="#DC6950"/>
<path d="M384 392H352C328.315 392 307.651 379.124 296.583 360H288C288 395.346 316.654 424 352 424H384C401.673 424 416 409.673 416 392C416 386.169 414.433 380.708 411.708 376C406.175 385.562 395.843 392 384 392Z" fill="#C85541"/>
<path d="M128 296C128 313.673 142.327 328 160 328H432C467.346 328 496 299.346 496 264C496 317.019 453.019 360 400 360H192C156.654 360 128 331.346 128 296Z" fill="#F58CAA"/>
</svg>
